<?xml version="1.0" standalone="no"?>
<!DOCTYPE svg PUBLIC "-//W3C//DTD SVG 20010904//EN"
 "http://www.w3.org/TR/2001/REC-SVG-20010904/DTD/svg10.dtd">
<svg version="1.0" xmlns="http://www.w3.org/2000/svg"
 width="457.000000pt" height="376.000000pt" viewBox="0 0 457.000000 376.000000"
 preserveAspectRatio="xMidYMid meet">

<g transform="translate(0.000000,376.000000) scale(0.100000,-0.100000)"
fill="#000000" stroke="none">
<path d="M406 3284 c-9 -8 -16 -18 -16 -20 0 -11 23 -48 56 -91 19 -25 34 -49
34 -54 0 -24 65 -101 118 -142 89 -69 160 -102 243 -115 101 -15 267 -32 307
-32 48 0 82 -21 148 -94 40 -43 67 -85 84 -127 23 -60 25 -74 23 -223 -3 -145
-5 -165 -29 -224 -14 -36 -32 -72 -40 -79 -16 -16 -15 -14 -44 -173 -11 -63
-24 -128 -29 -145 -5 -16 -21 -88 -36 -160 -38 -188 -65 -311 -82 -380 -9 -33
-19 -80 -23 -105 -5 -25 -20 -88 -34 -140 -14 -52 -29 -111 -34 -130 -6 -19
-16 -68 -23 -109 l-13 -74 37 -33 c74 -68 140 -30 157 92 5 38 18 110 29 159
11 50 29 135 40 190 12 55 33 152 47 215 14 63 32 149 39 190 26 146 40 195
56 198 20 4 44 -52 59 -137 6 -36 20 -86 31 -113 10 -27 19 -60 19 -75 0 -14
6 -46 14 -72 8 -25 24 -89 35 -141 12 -52 32 -142 45 -200 13 -58 29 -137 36
-177 11 -62 18 -77 51 -109 38 -37 39 -37 79 -25 33 10 45 20 57 49 14 33 13
44 -5 132 -10 52 -32 133 -47 180 -38 119 -68 226 -100 360 -16 63 -41 151
-56 195 -15 44 -30 103 -34 130 -3 28 -17 95 -30 150 -37 156 -36 152 -20 165
12 10 101 11 398 8 339 -5 394 -4 493 13 61 10 142 21 180 24 38 4 90 13 116
21 25 8 72 14 105 12 55 -3 58 -5 61 -30 4 -30 -19 -148 -48 -253 -25 -87
-109 -353 -121 -380 -5 -11 -31 -87 -58 -170 -27 -82 -57 -163 -65 -180 -23
-43 -30 -93 -18 -120 8 -17 25 -26 65 -35 68 -16 90 -5 110 52 8 24 24 72 36
108 12 36 35 112 51 170 16 58 45 152 65 210 61 180 74 224 81 268 7 43 41 89
55 75 12 -13 76 -201 119 -353 72 -248 142 -422 192 -471 53 -51 89 -65 125
-47 49 23 44 68 -26 217 -60 129 -76 171 -126 336 -15 50 -44 138 -66 197 -21
59 -39 110 -39 114 0 12 -51 138 -61 150 -5 6 -14 54 -20 108 -14 121 -10 128
62 102 73 -27 245 -19 309 14 142 72 243 155 340 279 53 68 69 119 77 247 7
113 -7 169 -58 235 -42 54 -193 114 -324 129 -140 17 -204 8 -286 -41 -37 -21
-71 -39 -76 -39 -4 0 -28 -16 -52 -35 -24 -19 -46 -35 -48 -35 -7 0 -118 39
-155 54 -43 18 -134 21 -143 5 -4 -6 -7 -26 -8 -45 -1 -26 7 -43 34 -72 73
-77 71 -122 -5 -122 -22 -1 -61 -11 -86 -23 -56 -27 -64 -59 -25 -105 31 -37
146 -123 195 -146 39 -18 82 -79 98 -139 9 -32 8 -38 -8 -47 -10 -6 -29 -10
-41 -10 -13 0 -48 -4 -78 -10 -31 -5 -101 -14 -156 -21 -55 -6 -118 -16 -140
-21 -22 -6 -71 -14 -110 -18 -38 -5 -126 -15 -195 -24 -145 -18 -641 -23 -685
-6 -25 9 -27 14 -21 48 4 20 9 114 12 208 l6 170 -41 83 c-31 62 -62 103 -119
160 -124 125 -240 176 -417 184 -115 5 -253 38 -297 70 -16 12 -55 64 -85 116
-43 72 -64 97 -89 107 -45 19 -119 18 -138 -2z m3255 -389 c95 -34 122 -95
100 -227 -18 -110 -77 -210 -163 -276 -59 -44 -195 -112 -228 -112 -11 0 -39
17 -63 38 -23 21 -54 43 -69 49 -20 9 -29 22 -34 50 -3 21 -15 48 -26 60 -19
20 -19 27 -9 84 7 42 20 74 39 98 16 20 32 52 36 72 8 45 60 96 146 143 59 33
72 36 146 36 48 0 99 -6 125 -15z"/>
</g>
</svg>
